<svg xmlns="http://www.w3.org/2000/svg" width="34.745" height="48" viewBox="0 0 34.745 48">
  <g id="logo" transform="translate(-877 -31)">
    <path id="Path_1437" data-name="Path 1437" d="M34.467,4.953c-.155-.658-.542-.5-.774-.7s-.194-.31-.271-.619A1.759,1.759,0,0,0,33,2.979c-.155-.155-.155-.658-.5-1.316-.31-.658-.774-.387-1.122-.619C30.983.811,30.945.037,30.635,0c-.271-.039-.968,1.122-1.393,1.9-.387.735-1.122,2.438-1.78,3.638-.619,1.2-2.322,4.606-2.864,5.612s-1.471,3.135-2.09,3.058c-.581-.077-2.284-3.483-2.942-4.567-.968-1.7-1.858-3.019-3.29-3.483a1.683,1.683,0,0,0-1.974.426,16.029,16.029,0,0,0-2.322,4.1c-.5,1.393-1.393,3.251-1.935,4.606s-.813,1.7-1.161,1.664-.735-.7-1.2-1.548S6.561,13.2,5.941,12.074,3.929,8.475,3.658,8.01a6.208,6.208,0,0,0-.852-1.084c-.5-.542-.89-.89-1.084-1.084s-.619-.7-.929-.7a.137.137,0,0,0-.116.077c0,.039-.039.077-.039.116A.491.491,0,0,0,.6,5.572a1.618,1.618,0,0,0,.155.387c.077.194.077.387.155.581.077.155.194.271.271.426a1.387,1.387,0,0,1,.155.426c.116.232.232.464.348.735.155.387.271.813.464,1.2.039.077.039.116.077.194.232.619.5,1.239.813,2.129C3.58,13.158,4.393,15.6,4.9,17.222a13.618,13.618,0,0,0,1.239,2.864c.039.039.271.5.5.968a4.6,4.6,0,0,0,.542.852l.116.116a3.573,3.573,0,0,0,.31.348l.387.387a2.127,2.127,0,0,0,.348.271,5.847,5.847,0,0,0,.7.348l.464.116c.077,0,.155.039.232.039,1.084.077,1.548-.7,1.935-1.316a15.349,15.349,0,0,0,1.2-2.516c.464-1.277.89-1.974,1.548-3.638a8.282,8.282,0,0,1,1.355-2.555c.155-.077.426.348.619.774.348.735.7,1.587,1.277,2.942a29.773,29.773,0,0,0,2.245,4.141,6.308,6.308,0,0,0,2.516,2.477c.077.039.194.077.271.116h0a1.912,1.912,0,0,0,.619.194,2.807,2.807,0,0,0,1.664-.387h0l.271-.271a.694.694,0,0,0,.194-.271A4.113,4.113,0,0,0,25.8,22.8l.232-.232c.155-.155.271-.348.426-.5A5.149,5.149,0,0,0,27,21.325a1.808,1.808,0,0,0,.194-.387c.116-.194.232-.387.387-.7.348-.542,2.013-3.6,2.206-4.064a7.853,7.853,0,0,1,.426-1.006c.232-.426,1.239-2.284,1.355-2.516a5.273,5.273,0,0,1,.426-1.045c.039-.039.039-.077.077-.116a3.4,3.4,0,0,1,.232-.387c.077-.116.116-.271.194-.387a4.222,4.222,0,0,1,.232-.426l.039-.039v-.039h0C34.119,7.352,34.583,5.533,34.467,4.953Z" transform="translate(876.793 31.002)" fill="#2d6fb7"/>
    <path id="Path_1438" data-name="Path 1438" d="M32.858,56.282c0,.039.039.077.039.116.077.194.155.387.232.542.116.271.464,1.122.5,1.277.039.116.077.194.116.31.077.194,1.006,2.09,1.084,2.284.116.232.387.581.774-.116.31-.581,1.2-2.516,1.277-2.632a2.365,2.365,0,0,0,.271-.542.038.038,0,0,1,.039-.039c.077-.116.116-.232.194-.348a3.413,3.413,0,0,0,.348-.774c.116-.31.271-.542.387-.813.039-.116.155-.31.194-.426.232-.619.232-.735.116-1.006l-.116-.232a3.1,3.1,0,0,0-.194-.426c-.077-.155-.194-.348-.271-.5-.116-.271-.232-.542-.348-.774-.077-.194-.194-.387-.271-.581s-.116-.387-.194-.581c-.155-.387-.348-.813-.542-1.2a1.887,1.887,0,0,0-.116-.271c-.077-.116-.31-.5-.348-.581a5.822,5.822,0,0,0-.348-.7,1.386,1.386,0,0,0-.232-.426h0c-.039-.039-.039-.077-.077-.116-.116-.116-.271-.464-.5,0,0,0-.194.387-.271.5a.718.718,0,0,0-.077.271c-.039.155-.31.852-.348,1.006-.039.077-.077.194-.116.271a2.467,2.467,0,0,0-.077.271,1.375,1.375,0,0,1-.155.348,6.315,6.315,0,0,0-.348.735,3.906,3.906,0,0,0-.271.581c-.039.155-.077.271-.116.426-.271.658-.5,1.161-.658,1.509a4.539,4.539,0,0,1-.194.426c-.039.039-.039.155-.039.194v.155a2.544,2.544,0,0,0,.387,1.277C32.7,55.934,32.781,56.127,32.858,56.282Z" transform="translate(857.424 1.89)" fill="#1f4670"/>
    <path id="Path_1439" data-name="Path 1439" d="M34.232,85.948a3.757,3.757,0,0,1-.581-1.509,2.64,2.64,0,0,0-.426-1.239c-.232-.348-2.438-4.3-3.058-5.574-.658-1.316-1.742-3.677-2.361-4.722a18.376,18.376,0,0,0-1.355-2.013c-.039-.077-.116-.155-.155-.232-.271-.348-.5-.7-.774-1.084a4.057,4.057,0,0,0-.774-.852,3.164,3.164,0,0,0-.774-.464,1.539,1.539,0,0,0-.774-.271,2.635,2.635,0,0,0-1.509.348,6,6,0,0,0-.658.5,4.144,4.144,0,0,0-.735.7h0a1.664,1.664,0,0,0-.348.387l-.039.039h0a4.469,4.469,0,0,0-.542.735h0c-.619.929-1.045,1.858-1.432,2.477a21.09,21.09,0,0,0-.968,2.129c-.039.039-.039.077-.077.232-.116.271-.232.542-.348.774a5.019,5.019,0,0,1-.387.7,3.164,3.164,0,0,1-.464.774c-.039.039-.039.116-.077.155a1.939,1.939,0,0,1-.271.31c-.039.039-.077.039-.116.077h-.116c-.077-.039-.116-.077-.194-.116s-.116-.116-.155-.155c-.077-.077-.116-.155-.194-.232s-.116-.155-.194-.232h0c-.077-.116-.116-.232-.194-.348,0-.039-.039-.039-.039-.077h0a1.159,1.159,0,0,0-.155-.31c-.735-1.626-1.471-3.483-2.09-4.916-.658-1.393-1.587-3.019-2.748-3.174s-1.974.31-3.213,2.206a33.274,33.274,0,0,0-2.593,5.109c-.232.619-.542,1.355-.852,2.284-.039.155-.155.581-.232.813-.194.658-.31.774-.581,1.664-.039.077-.077.194-.116.271-.116.271-.155.542-.232.774s-.155.5-.194.619-.155.426-.271.774S.6,84.09.4,84.593c-.232.581-.5,1.239-.619,1.548,0,.039-.039.077-.039.155h0c-.039.155-.077.271-.116.387-.077.232-.077.5.194.464a1.26,1.26,0,0,0,.542-.155,1.822,1.822,0,0,0,.5-.581c.116-.155.387-.348.5-.5a4.145,4.145,0,0,0,.658-1.122c.077-.116.232-.387.387-.619.077-.116.116-.194.194-.31l.039-.039h0c.116-.194.194-.387.31-.581.619-1.161,1.858-3.445,2.516-4.49S6.983,76.5,7.37,76s.464-.7.852-.5c.387.155.774.89,1.393,2.361s1.819,3.832,2.555,5.148c.735,1.277,1.084,1.9,1.78,2.206a1.914,1.914,0,0,0,1.935,0,6.878,6.878,0,0,0,1.7-1.78c1.006-1.471,3.329-5.3,3.561-5.69.31-.5.774-.89,1.122.039a2.667,2.667,0,0,1,.116.31c.077.232.232.464.31.7.155.31.271.658.426.968a3.2,3.2,0,0,0,.348.581c.039.039.116.194.194.271a.843.843,0,0,1,.194.31c.271.542.426,1.084.735,1.587A7.929,7.929,0,0,0,25.33,83.9c.155.194.271.542.426.774l.348.581.039.039a10.826,10.826,0,0,0,1.2,1.78c1.045,1.161,1.78,2.477,2.632,2.593.89.077.658-.813,1.084-1.006s.968-.039,1.277-.5a1.983,1.983,0,0,1,.89-.735C33.767,87.186,34.619,86.683,34.232,85.948Z" transform="translate(877.415 -10.668)" fill="#3d6eb2"/>
    <g id="Group_573" data-name="Group 573" transform="translate(877 57.313)">
      <path id="Path_1441" data-name="Path 1441" d="M34.232,85.948a3.757,3.757,0,0,1-.581-1.509,2.64,2.64,0,0,0-.426-1.239c-.232-.348-2.438-4.3-3.058-5.574-.658-1.316-1.742-3.677-2.361-4.722a18.376,18.376,0,0,0-1.355-2.013c-.039-.077-.116-.155-.155-.232-.271-.348-.5-.7-.774-1.084a4.057,4.057,0,0,0-.774-.852,3.164,3.164,0,0,0-.774-.464,1.539,1.539,0,0,0-.774-.271,2.635,2.635,0,0,0-1.509.348,6,6,0,0,0-.658.5,4.144,4.144,0,0,0-.735.7h0a1.664,1.664,0,0,0-.348.387l-.039.039h0a4.469,4.469,0,0,0-.542.735h0c-.619.929-1.045,1.858-1.432,2.477a21.09,21.09,0,0,0-.968,2.129c-.039.039-.039.077-.077.232-.116.271-.232.542-.348.774a5.019,5.019,0,0,1-.387.7,3.164,3.164,0,0,1-.464.774c-.039.039-.039.116-.077.155a1.939,1.939,0,0,1-.271.31c-.039.039-.077.039-.116.077h-.116c-.077-.039-.116-.077-.194-.116s-.116-.116-.155-.155c-.077-.077-.116-.155-.194-.232s-.116-.155-.194-.232h0c-.077-.116-.116-.232-.194-.348,0-.039-.039-.039-.039-.077h0a1.159,1.159,0,0,0-.155-.31c-.735-1.626-1.471-3.483-2.09-4.916-.658-1.393-1.587-3.019-2.748-3.174s-1.974.31-3.213,2.206a33.274,33.274,0,0,0-2.593,5.109c-.232.619-.542,1.355-.852,2.284-.039.155-.155.581-.232.813-.194.658-.31.774-.581,1.664-.039.077-.077.194-.116.271-.116.271-.155.542-.232.774s-.155.5-.194.619-.155.426-.271.774S.6,84.09.4,84.593c-.232.581-.5,1.239-.619,1.548,0,.039-.039.077-.039.155h0c-.039.155-.077.271-.116.387-.077.232-.077.5.194.464a1.26,1.26,0,0,0,.542-.155,1.822,1.822,0,0,0,.5-.581c.116-.155.387-.348.5-.5a4.145,4.145,0,0,0,.658-1.122c.077-.116.232-.387.387-.619.077-.116.116-.194.194-.31l.039-.039h0c.116-.194.194-.387.31-.581.619-1.161,1.858-3.445,2.516-4.49S6.983,76.5,7.37,76s.464-.7.852-.5c.387.155.774.89,1.393,2.361s1.819,3.832,2.555,5.148c.735,1.277,1.084,1.9,1.78,2.206a1.914,1.914,0,0,0,1.935,0,6.878,6.878,0,0,0,1.7-1.78c1.006-1.471,3.329-5.3,3.561-5.69.31-.5.774-.89,1.122.039a2.667,2.667,0,0,1,.116.31c.077.232.232.464.31.7.155.31.271.658.426.968a3.2,3.2,0,0,0,.348.581c.039.039.116.194.194.271a.843.843,0,0,1,.194.31c.271.542.426,1.084.735,1.587A7.929,7.929,0,0,0,25.33,83.9c.155.194.271.542.426.774l.348.581.039.039a10.826,10.826,0,0,0,1.2,1.78c1.045,1.161,1.78,2.477,2.632,2.593.89.077.658-.813,1.084-1.006s.968-.039,1.277-.5a1.983,1.983,0,0,1,.89-.735C33.767,87.186,34.619,86.683,34.232,85.948Z" transform="translate(0.415 -67.981)" fill="#72893e"/>
    </g>
  </g>
</svg>
