<svg xmlns="http://www.w3.org/2000/svg" width="67.45" height="73.001" viewBox="0 0 67.45 73.001">
  <path id="snow-icon" d="M70.627,55.672l-5.69-3.3a15.279,15.279,0,0,1,4.6-3.214A2.716,2.716,0,0,0,71.1,45.8a2.488,2.488,0,0,0-2.371-1.721,2.632,2.632,0,0,0-.966.193,20.515,20.515,0,0,0-7.358,5.479L43.5,39.919l16.911-9.834a20.361,20.361,0,0,0,7.358,5.479,2.632,2.632,0,0,0,.966.193A2.511,2.511,0,0,0,71.1,34.036a2.716,2.716,0,0,0-1.563-3.354,15.754,15.754,0,0,1-4.6-3.214l5.69-3.3a2.657,2.657,0,0,0-1.335-4.952,2.755,2.755,0,0,0-1.335.351l-5.655,3.3a15.8,15.8,0,0,1-.457-5.62,2.713,2.713,0,0,0-2.107-3.038,2.68,2.68,0,0,0-.527-.053,2.511,2.511,0,0,0-2.476,2.178A20.429,20.429,0,0,0,57.808,25.5L40.949,35.336V17.915a20.6,20.6,0,0,0,8.377-3.67,2.515,2.515,0,0,0,.316-3.653,2.7,2.7,0,0,0-2-.9,2.748,2.748,0,0,0-1.668.58,15.24,15.24,0,0,1-5.022,2.388V6.027a2.723,2.723,0,0,0-5.444,0v6.585a15.7,15.7,0,0,1-5.022-2.388,2.688,2.688,0,0,0-3.67.316,2.511,2.511,0,0,0,.316,3.653,20.6,20.6,0,0,0,8.377,3.67v17.42L18.647,25.449A20.551,20.551,0,0,0,19.7,16.282,2.481,2.481,0,0,0,17.242,14.1,2.669,2.669,0,0,0,14.608,17.2a15.74,15.74,0,0,1-.457,5.6L8.479,19.531a2.7,2.7,0,0,0-1.335-.351A2.657,2.657,0,0,0,5.81,24.132l5.69,3.3a15.512,15.512,0,0,1-4.6,3.214A2.716,2.716,0,0,0,5.336,34a2.488,2.488,0,0,0,2.371,1.721,2.632,2.632,0,0,0,.966-.193A20.515,20.515,0,0,0,16.03,30.05l16.911,9.834L16.03,49.718a20.362,20.362,0,0,0-7.358-5.479,2.632,2.632,0,0,0-.966-.193,2.511,2.511,0,0,0-2.371,1.721A2.724,2.724,0,0,0,6.9,49.121a15.512,15.512,0,0,1,4.6,3.214l-5.69,3.3a2.657,2.657,0,0,0,1.335,4.952,2.755,2.755,0,0,0,1.335-.351l5.672-3.3a15.841,15.841,0,0,1,.457,5.62,2.669,2.669,0,0,0,2.634,3.091,2.511,2.511,0,0,0,2.476-2.178A20.429,20.429,0,0,0,18.647,54.3l16.859-9.834v17.42a20.6,20.6,0,0,0-8.377,3.67,2.515,2.515,0,0,0-.316,3.653,2.7,2.7,0,0,0,2,.9,2.748,2.748,0,0,0,1.668-.58,15.466,15.466,0,0,1,5.022-2.388v6.585a2.723,2.723,0,0,0,5.444,0V67.139a15.7,15.7,0,0,1,5.022,2.388,2.748,2.748,0,0,0,1.668.58,2.7,2.7,0,0,0,2-.9,2.511,2.511,0,0,0-.316-3.653,20.6,20.6,0,0,0-8.377-3.67V44.468L57.808,54.3a20.551,20.551,0,0,0-1.054,9.167,2.481,2.481,0,0,0,2.459,2.178,2.669,2.669,0,0,0,2.634-3.091,15.81,15.81,0,0,1,.457-5.62l5.655,3.3a2.7,2.7,0,0,0,1.335.351,2.638,2.638,0,0,0,1.335-4.917Z" transform="translate(-4.493 -3.375)" fill="#3d6eb2"/>
</svg>
