<svg xmlns="http://www.w3.org/2000/svg" width="110.275" height="32" viewBox="0 0 110.275 32">
  <g id="white-logo" transform="translate(-877 -31)">
    <g id="Group_570" data-name="Group 570" transform="translate(904.394 38.664)">
      <g id="Group_568" data-name="Group 568">
        <g id="Group_567" data-name="Group 567">
          <g id="Group_566" data-name="Group 566">
            <g id="Group_564" data-name="Group 564">
              <g id="Group_563" data-name="Group 563">
                <path id="Path_1422" data-name="Path 1422" d="M113.348,35.583,111.9,39.118a.226.226,0,0,1-.232.155h-2.245a.248.248,0,0,1-.232-.155l-3.432-9.083a.251.251,0,0,1,.232-.335h2.013a.226.226,0,0,1,.232.155l2.477,6.631c.026.052.1.052.1,0l1.316-3.225a1.279,1.279,0,0,0,.026-.929l-.826-2.271a.251.251,0,0,1,.232-.335h2.038a.261.261,0,0,1,.232.155l2.142,6.193c.026.052.1.052.1,0l2.322-6.219a.226.226,0,0,1,.232-.155H120.7a.251.251,0,0,1,.232.335l-3.509,9.083a.226.226,0,0,1-.232.155h-2.245a.248.248,0,0,1-.232-.155Z" transform="translate(-105.749 -29.7)" fill="#fff"/>
                <path id="Path_1423" data-name="Path 1423" d="M171.858,29.7h1.858a.259.259,0,0,1,.258.258v9.083a.259.259,0,0,1-.258.258h-1.858a.259.259,0,0,1-.258-.258V29.958a.277.277,0,0,1,.258-.258" transform="translate(-154.608 -29.7)" fill="#fff"/>
                <path id="Path_1424" data-name="Path 1424" d="M193.974,33.467v5.574a.259.259,0,0,1-.258.258h-1.858a.259.259,0,0,1-.258-.258V29.958a.259.259,0,0,1,.258-.258h1.7a.2.2,0,0,1,.181.077l4.748,5.728V29.958a.259.259,0,0,1,.258-.258h1.858a.259.259,0,0,1,.258.258v9.083a.259.259,0,0,1-.258.258h-1.7a.2.2,0,0,1-.181-.077Z" transform="translate(-169.447 -29.7)" fill="#fff"/>
                <path id="Path_1425" data-name="Path 1425" d="M238.2,29.958a.259.259,0,0,1,.258-.258h4.567c2.838.026,4.928,1.677,4.928,4.8,0,3.071-2.116,4.774-4.928,4.774h-4.567a.259.259,0,0,1-.258-.258Zm2.374,1.806v5.444h2.348a2.468,2.468,0,0,0,2.606-2.709,2.463,2.463,0,0,0-2.606-2.735Z" transform="translate(-204.023 -29.7)" fill="#fff"/>
                <path id="Path_1426" data-name="Path 1426" d="M291.064,35.454h-4.516v3.561a.259.259,0,0,1-.258.258h-1.858a.238.238,0,0,1-.232-.258V29.958a.255.255,0,0,1,.232-.258h1.858a.259.259,0,0,1,.258.258v3.458h4.516V29.958a.259.259,0,0,1,.258-.258h1.884a.259.259,0,0,1,.258.258v9.083a.259.259,0,0,1-.258.258h-1.884a.259.259,0,0,1-.258-.258Z" transform="translate(-238.154 -29.7)" fill="#fff"/>
                <path id="Path_1427" data-name="Path 1427" d="M330.378,29.7h2.451a.248.248,0,0,1,.232.155l3.432,9.083a.251.251,0,0,1-.232.335H334.4a.226.226,0,0,1-.232-.155l-.593-1.6h-4l-.593,1.6a.226.226,0,0,1-.232.155h-1.858a.251.251,0,0,1-.232-.335l3.509-9.083a.225.225,0,0,1,.206-.155m-.206,6.09h2.838l-1.393-3.741Z" transform="translate(-269.649 -29.7)" fill="#fff"/>
                <path id="Path_1428" data-name="Path 1428" d="M375.774,33.335l1.393-3.38a.226.226,0,0,1,.232-.155h2.245a.226.226,0,0,1,.232.155l3.432,9.083a.251.251,0,0,1-.232.335h-2.013a.226.226,0,0,1-.232-.155l-2.451-6.606c-.026-.052-.1-.052-.1,0l-1.316,3.225a1.28,1.28,0,0,0-.026.929l.826,2.271a.251.251,0,0,1-.232.335H375.49a.261.261,0,0,1-.232-.155l-2.142-6.193c-.026-.052-.1-.052-.1,0l-2.322,6.219a.226.226,0,0,1-.232.155h-2.064a.251.251,0,0,1-.232-.335l3.509-9.083a.226.226,0,0,1,.232-.155h2.245a.226.226,0,0,1,.232.155l1.316,3.38c0,.026.077.026.077-.026" transform="translate(-300.441 -29.774)" fill="#fff"/>
              </g>
            </g>
          </g>
        </g>
      </g>
    </g>
    <path id="Path_1437" data-name="Path 1437" d="M23.178,3.3c-.1-.439-.361-.335-.516-.464s-.129-.206-.181-.413a1.173,1.173,0,0,0-.284-.439c-.1-.1-.1-.439-.335-.877-.206-.439-.516-.258-.748-.413-.258-.155-.284-.671-.49-.7-.181-.026-.645.748-.929,1.264-.258.49-.748,1.626-1.187,2.426-.413.8-1.548,3.071-1.909,3.741S15.618,9.52,15.2,9.468c-.387-.052-1.522-2.322-1.961-3.045C12.6,5.288,12.005,4.411,11.05,4.1a1.122,1.122,0,0,0-1.316.284A10.686,10.686,0,0,0,8.186,7.12c-.335.929-.929,2.167-1.29,3.071s-.542,1.135-.774,1.11-.49-.464-.8-1.032S4.574,8.8,4.161,8.049s-1.342-2.4-1.522-2.709a4.139,4.139,0,0,0-.568-.722c-.335-.361-.593-.593-.722-.722S.935,3.43.729,3.43a.092.092,0,0,0-.077.052c0,.026-.026.052-.026.077A.327.327,0,0,0,.6,3.714a1.078,1.078,0,0,0,.1.258c.052.129.052.258.1.387.052.1.129.181.181.284a.924.924,0,0,1,.1.284c.077.155.155.31.232.49.1.258.181.542.31.8.026.052.026.077.052.129.155.413.335.826.542,1.419.361,1.006.9,2.632,1.239,3.716A9.079,9.079,0,0,0,4.29,13.39c.026.026.181.335.335.645a3.066,3.066,0,0,0,.361.568l.077.077a2.382,2.382,0,0,0,.206.232l.258.258a1.418,1.418,0,0,0,.232.181,3.9,3.9,0,0,0,.464.232l.31.077c.052,0,.1.026.155.026.722.052,1.032-.464,1.29-.877a10.232,10.232,0,0,0,.8-1.677c.31-.852.593-1.316,1.032-2.426a5.522,5.522,0,0,1,.9-1.7c.1-.052.284.232.413.516.232.49.464,1.058.852,1.961a19.848,19.848,0,0,0,1.5,2.761,4.206,4.206,0,0,0,1.677,1.651c.052.026.129.052.181.077h0a1.274,1.274,0,0,0,.413.129,1.871,1.871,0,0,0,1.11-.258h0l.181-.181a.463.463,0,0,0,.129-.181A2.742,2.742,0,0,0,17.4,15.2l.155-.155c.1-.1.181-.232.284-.335a3.433,3.433,0,0,0,.361-.49,1.205,1.205,0,0,0,.129-.258c.077-.129.155-.258.258-.464.232-.361,1.342-2.4,1.471-2.709a5.235,5.235,0,0,1,.284-.671c.155-.284.826-1.522.9-1.677a3.515,3.515,0,0,1,.284-.7c.026-.026.026-.052.052-.077a2.269,2.269,0,0,1,.155-.258c.052-.077.077-.181.129-.258a2.815,2.815,0,0,1,.155-.284l.026-.026V6.81h0A8.642,8.642,0,0,0,23.178,3.3Z" transform="translate(876.662 31.002)" fill="#fff" opacity="0.4"/>
    <path id="Path_1438" data-name="Path 1438" d="M32.639,53.353c0,.026.026.052.026.077.052.129.1.258.155.361.077.181.31.748.335.852.026.077.052.129.077.206.052.129.671,1.393.722,1.522.077.155.258.387.516-.077.206-.387.8-1.677.852-1.755a1.576,1.576,0,0,0,.181-.361.025.025,0,0,1,.026-.026c.052-.077.077-.155.129-.232a2.275,2.275,0,0,0,.232-.516c.077-.206.181-.361.258-.542.026-.077.1-.206.129-.284.155-.413.155-.49.077-.671l-.077-.155a2.064,2.064,0,0,0-.129-.284c-.052-.1-.129-.232-.181-.335-.077-.181-.155-.361-.232-.516-.052-.129-.129-.258-.181-.387s-.077-.258-.129-.387c-.1-.258-.232-.542-.361-.8a1.257,1.257,0,0,0-.077-.181c-.052-.077-.206-.335-.232-.387a3.881,3.881,0,0,0-.232-.464.924.924,0,0,0-.155-.284h0c-.026-.026-.026-.052-.052-.077-.077-.077-.181-.31-.335,0,0,0-.129.258-.181.335a.478.478,0,0,0-.052.181c-.026.1-.206.568-.232.671-.026.052-.052.129-.077.181a1.644,1.644,0,0,0-.052.181.916.916,0,0,1-.1.232,4.21,4.21,0,0,0-.232.49,2.6,2.6,0,0,0-.181.387c-.026.1-.052.181-.077.284-.181.439-.335.774-.439,1.006a3.026,3.026,0,0,1-.129.284c-.026.026-.026.1-.026.129v.1a1.7,1.7,0,0,0,.258.852C32.535,53.12,32.587,53.249,32.639,53.353Z" transform="translate(853.216 -4.238)" fill="#fff"/>
    <path id="Path_1439" data-name="Path 1439" d="M22.683,79.959a2.5,2.5,0,0,1-.387-1.006,1.76,1.76,0,0,0-.284-.826c-.155-.232-1.626-2.864-2.038-3.716-.439-.877-1.161-2.451-1.574-3.148a12.25,12.25,0,0,0-.9-1.342c-.026-.052-.077-.1-.1-.155-.181-.232-.335-.464-.516-.722a2.7,2.7,0,0,0-.516-.568,2.109,2.109,0,0,0-.516-.31,1.026,1.026,0,0,0-.516-.181,1.756,1.756,0,0,0-1.006.232,4,4,0,0,0-.439.335,2.763,2.763,0,0,0-.49.464h0a1.109,1.109,0,0,0-.232.258l-.026.026h0a2.979,2.979,0,0,0-.361.49h0c-.413.619-.7,1.239-.955,1.651a14.059,14.059,0,0,0-.645,1.419c-.026.026-.026.052-.052.155-.077.181-.155.361-.232.516a3.346,3.346,0,0,1-.258.464,2.109,2.109,0,0,1-.31.516c-.026.026-.026.077-.052.1a1.293,1.293,0,0,1-.181.206c-.026.026-.052.026-.077.052H9.936c-.052-.026-.077-.052-.129-.077s-.077-.077-.1-.1c-.052-.052-.077-.1-.129-.155s-.077-.1-.129-.155h0c-.052-.077-.077-.155-.129-.232,0-.026-.026-.026-.026-.052h0a.773.773,0,0,0-.1-.206c-.49-1.084-.981-2.322-1.393-3.277-.439-.929-1.058-2.013-1.832-2.116s-1.316.206-2.142,1.471a22.184,22.184,0,0,0-1.729,3.406c-.155.413-.361.9-.568,1.522-.026.1-.1.387-.155.542-.129.439-.206.516-.387,1.11-.026.052-.052.129-.077.181-.077.181-.1.361-.155.516s-.1.335-.129.413-.1.284-.181.516-.181.542-.31.877c-.155.387-.335.826-.413,1.032,0,.026-.026.052-.026.1h0c-.026.1-.052.181-.077.258-.052.155-.052.335.129.31a.84.84,0,0,0,.361-.1,1.215,1.215,0,0,0,.335-.387c.077-.1.258-.232.335-.335a2.763,2.763,0,0,0,.439-.748c.052-.077.155-.258.258-.413.052-.077.077-.129.129-.206l.026-.026h0c.077-.129.129-.258.206-.387.413-.774,1.239-2.3,1.677-2.993s1.006-1.5,1.264-1.832.31-.464.568-.335c.258.1.516.593.929,1.574S7.485,77.12,7.975,78c.49.852.722,1.264,1.187,1.471a1.276,1.276,0,0,0,1.29,0,4.585,4.585,0,0,0,1.135-1.187c.671-.981,2.219-3.535,2.374-3.793.206-.335.516-.593.748.026a1.777,1.777,0,0,1,.077.206c.052.155.155.31.206.464.1.206.181.439.284.645a2.134,2.134,0,0,0,.232.387c.026.026.077.129.129.181a.562.562,0,0,1,.129.206c.181.361.284.722.49,1.058a5.287,5.287,0,0,0,.49.929c.1.129.181.361.284.516l.232.387.026.026a7.217,7.217,0,0,0,.8,1.187c.7.774,1.187,1.651,1.755,1.729.593.052.439-.542.722-.671s.645-.026.852-.335a1.322,1.322,0,0,1,.593-.49C22.373,80.785,22.941,80.449,22.683,79.959Z" transform="translate(877.415 -19.439)" fill="#fff"/>
    <g id="Group_573" data-name="Group 573" transform="translate(877 48.542)">
      <path id="Path_1441" data-name="Path 1441" d="M22.683,79.959a2.5,2.5,0,0,1-.387-1.006,1.76,1.76,0,0,0-.284-.826c-.155-.232-1.626-2.864-2.038-3.716-.439-.877-1.161-2.451-1.574-3.148a12.25,12.25,0,0,0-.9-1.342c-.026-.052-.077-.1-.1-.155-.181-.232-.335-.464-.516-.722a2.7,2.7,0,0,0-.516-.568,2.109,2.109,0,0,0-.516-.31,1.026,1.026,0,0,0-.516-.181,1.756,1.756,0,0,0-1.006.232,4,4,0,0,0-.439.335,2.763,2.763,0,0,0-.49.464h0a1.109,1.109,0,0,0-.232.258l-.026.026h0a2.979,2.979,0,0,0-.361.49h0c-.413.619-.7,1.239-.955,1.651a14.059,14.059,0,0,0-.645,1.419c-.026.026-.026.052-.052.155-.077.181-.155.361-.232.516a3.346,3.346,0,0,1-.258.464,2.109,2.109,0,0,1-.31.516c-.026.026-.026.077-.052.1a1.293,1.293,0,0,1-.181.206c-.026.026-.052.026-.077.052H9.936c-.052-.026-.077-.052-.129-.077s-.077-.077-.1-.1c-.052-.052-.077-.1-.129-.155s-.077-.1-.129-.155h0c-.052-.077-.077-.155-.129-.232,0-.026-.026-.026-.026-.052h0a.773.773,0,0,0-.1-.206c-.49-1.084-.981-2.322-1.393-3.277-.439-.929-1.058-2.013-1.832-2.116s-1.316.206-2.142,1.471a22.184,22.184,0,0,0-1.729,3.406c-.155.413-.361.9-.568,1.522-.026.1-.1.387-.155.542-.129.439-.206.516-.387,1.11-.026.052-.052.129-.077.181-.077.181-.1.361-.155.516s-.1.335-.129.413-.1.284-.181.516-.181.542-.31.877c-.155.387-.335.826-.413,1.032,0,.026-.026.052-.026.1h0c-.026.1-.052.181-.077.258-.052.155-.052.335.129.31a.84.84,0,0,0,.361-.1,1.215,1.215,0,0,0,.335-.387c.077-.1.258-.232.335-.335a2.763,2.763,0,0,0,.439-.748c.052-.077.155-.258.258-.413.052-.077.077-.129.129-.206l.026-.026h0c.077-.129.129-.258.206-.387.413-.774,1.239-2.3,1.677-2.993s1.006-1.5,1.264-1.832.31-.464.568-.335c.258.1.516.593.929,1.574S7.485,77.12,7.975,78c.49.852.722,1.264,1.187,1.471a1.276,1.276,0,0,0,1.29,0,4.585,4.585,0,0,0,1.135-1.187c.671-.981,2.219-3.535,2.374-3.793.206-.335.516-.593.748.026a1.777,1.777,0,0,1,.077.206c.052.155.155.31.206.464.1.206.181.439.284.645a2.134,2.134,0,0,0,.232.387c.026.026.077.129.129.181a.562.562,0,0,1,.129.206c.181.361.284.722.49,1.058a5.287,5.287,0,0,0,.49.929c.1.129.181.361.284.516l.232.387.026.026a7.217,7.217,0,0,0,.8,1.187c.7.774,1.187,1.651,1.755,1.729.593.052.439-.542.722-.671s.645-.026.852-.335a1.322,1.322,0,0,1,.593-.49C22.373,80.785,22.941,80.449,22.683,79.959Z" transform="translate(0.415 -67.981)" fill="#fff"/>
    </g>
    <g id="Group_576" data-name="Group 576" transform="translate(908.097 50.921)" opacity="0.5">
      <path id="Path_1429" data-name="Path 1429" d="M123.3,82.6h-.026l-2.038-3.045V84.2H120.1V77.7h1.213l1.987,3.071,1.987-3.071H126.5v6.5h-1.135v-4.67Z" transform="translate(-120.1 -77.571)" fill="#fff"/>
      <path id="Path_1430" data-name="Path 1430" d="M153.58,83.935a3.305,3.305,0,0,1-3.38-3.354,3.348,3.348,0,0,1,3.406-3.38,3.367,3.367,0,1,1-.026,6.735Zm0-5.677a2.2,2.2,0,0,0-2.193,2.3,2.243,2.243,0,0,0,2.219,2.322,2.2,2.2,0,0,0,2.193-2.3A2.259,2.259,0,0,0,153.58,78.258Z" transform="translate(-142.433 -77.2)" fill="#fff"/>
      <path id="Path_1431" data-name="Path 1431" d="M186.848,81.39a2.591,2.591,0,0,1-2.787,2.916,2.556,2.556,0,0,1-2.761-2.864V77.7h1.135v3.69c0,1.213.619,1.858,1.651,1.858,1.006,0,1.626-.619,1.626-1.806V77.7h1.135Z" transform="translate(-165.508 -77.571)" fill="#fff"/>
      <path id="Path_1432" data-name="Path 1432" d="M213.541,77.7h1.135v6.5h-.955l-3.587-4.619V84.2H209V77.7h1.058l3.483,4.49Z" transform="translate(-186.061 -77.571)" fill="#fff"/>
      <path id="Path_1433" data-name="Path 1433" d="M238.225,84.2h-1.161V78.758H235V77.7h5.264v1.058H238.2V84.2Z" transform="translate(-205.352 -77.571)" fill="#fff"/>
      <path id="Path_1434" data-name="Path 1434" d="M261.086,84.054h-1.213L259.2,82.48h-3.071l-.671,1.574H254.3l2.864-6.554h1.058Zm-3.406-5.186-1.135,2.606h2.245Z" transform="translate(-219.672 -77.423)" fill="#fff"/>
      <path id="Path_1435" data-name="Path 1435" d="M287.035,77.7v6.5H285.9V77.7Z" transform="translate(-243.118 -77.571)" fill="#fff"/>
      <path id="Path_1436" data-name="Path 1436" d="M302.541,77.7h1.135v6.5h-.955l-3.587-4.619V84.2H298V77.7h1.058l3.484,4.49Z" transform="translate(-252.096 -77.571)" fill="#fff"/>
    </g>
  </g>
</svg>
